# Blender 3.6.9
# www.blender.org
mtllib a.mtl
o part_015
o part_015.001
v -0.461900 0.070200 -0.741000
v -0.520300 0.128000 -0.519800
v -0.457900 0.071700 -0.742500
v -0.413200 0.014600 -0.908800
v -0.409000 0.015900 -0.910600
v -0.394600 -0.005600 -0.960000
v -0.391300 -0.003500 -0.959400
v -0.370000 -0.022500 -1.007000
v 0.008400 -0.031800 -1.106200
v 0.008400 -0.029100 -1.103100
v 0.153000 -0.033000 -1.095300
v -0.136900 -0.030300 -1.092000
v -0.136300 -0.033000 -1.095100
v -0.268100 -0.031700 -1.064100
v -0.267200 -0.034800 -1.067200
v -0.334600 -0.029200 -1.036900
v -0.336400 -0.032000 -1.039400
v -0.367200 -0.019700 -1.005800
v 0.008900 0.135300 -0.508600
v -0.273100 0.227200 -0.029100
v -0.477300 0.114000 -0.508200
v -0.615200 0.199200 -0.143600
v -0.578100 0.173300 -0.293100
v -0.130500 0.262900 -0.002800
v -0.308400 0.258100 0.020900
v -0.454000 0.250800 0.058200
v -0.616000 0.207200 0.074900
v -0.646900 0.216800 -0.005600
v -0.657800 0.226800 0.107900
v -0.653500 0.234800 0.171000
v -0.650100 0.235100 0.168600
v -0.570200 0.242700 0.113300
v -0.646400 0.235400 0.166100
v 0.291500 0.227100 -0.029600
v 0.009200 0.232900 -0.059300
v 0.149000 0.262900 -0.003000
v 0.009200 0.263800 -0.007200
v 0.472600 0.250800 0.057500
v 0.327000 0.258100 0.020400
v 0.634600 0.207200 0.073900
v 0.588900 0.242700 0.112300
v 0.665200 0.235400 0.165100
v 0.668900 0.235100 0.167500
v 0.665400 0.216800 -0.006700
v 0.633500 0.199200 -0.144600
v 0.676500 0.226800 0.106800
v 0.672200 0.234800 0.170000
v 0.495000 0.114000 -0.509000
v 0.430300 0.014600 -0.909400
v 0.479200 0.070200 -0.741700
v 0.538000 0.128000 -0.520600
v 0.596200 0.173300 -0.294000
v 0.341100 -0.035900 -0.994100
v 0.008400 -0.028400 -1.054900
v 0.284000 -0.034800 -1.067600
v 0.353300 -0.032000 -1.039900
v 0.386900 -0.022500 -1.007600
v 0.411600 -0.005600 -0.960700
v -0.324200 -0.035900 -0.993600
v 0.673100 0.228600 0.105600
v 0.661700 0.218000 -0.006400
v 0.669400 0.228900 0.105600
v 0.658100 0.218600 -0.006100
v 0.630200 0.201300 -0.144300
v 0.486400 0.218100 -0.127100
v 0.429500 0.182000 -0.349100
v 0.262700 0.223800 -0.189500
v 0.587900 0.175100 -0.297100
v 0.626500 0.201600 -0.144000
v 0.591900 0.174800 -0.295500
v 0.534000 0.129800 -0.522200
v 0.008800 0.140300 -0.628300
v 0.008900 0.188000 -0.420500
v 0.202900 0.138200 -0.613200
v 0.225600 0.185300 -0.405400
v 0.382000 0.134900 -0.569400
v 0.529800 0.129800 -0.523400
v 0.475300 0.071700 -0.743300
v 0.471000 0.071700 -0.744500
v 0.008600 0.079500 -0.835700
v 0.180100 0.078600 -0.819900
v 0.338200 0.076800 -0.781600
v 0.426000 0.015900 -0.911300
v 0.421700 0.016200 -0.912500
v 0.408300 -0.003500 -0.960100
v 0.404900 -0.002200 -0.959100
v 0.384100 -0.019700 -1.006400
v 0.381100 -0.018500 -1.004600
v 0.305700 0.017900 -0.948400
v 0.154000 -0.028700 -1.088900
v 0.164700 0.020300 -0.980700
v 0.285500 -0.030200 -1.060600
v 0.349300 -0.027700 -1.034700
v 0.351400 -0.029200 -1.037500
v 0.284900 -0.031700 -1.064600
v 0.153700 -0.030300 -1.092200
v 0.008500 0.020000 -0.997000
v 0.008400 -0.027200 -1.099800
v -0.162900 0.078600 -0.819700
v -0.147800 0.020300 -0.980400
v -0.137200 -0.028700 -1.088700
v -0.185300 0.138200 -0.612900
v -0.512100 0.129800 -0.522600
v -0.364400 0.134900 -0.568800
v -0.321000 0.076800 -0.781100
v -0.569900 0.175100 -0.296200
v -0.411600 0.182000 -0.348500
v -0.207700 0.185300 -0.405100
v -0.608200 0.201600 -0.143000
v -0.611900 0.201300 -0.143300
v -0.468100 0.218100 -0.126300
v -0.244500 0.223800 -0.189100
v 0.009100 0.226800 -0.213100
v -0.643200 0.218000 -0.005300
v -0.639600 0.218700 -0.005000
v -0.654400 0.228600 0.106700
v -0.650800 0.228900 0.106600
v -0.020500 0.037100 -0.961600
v 0.037500 0.037100 -0.961700
v -0.020600 0.004600 -1.033600
v 0.037400 0.004600 -1.033600
v -0.404700 0.016200 -0.911800
v -0.387900 -0.002200 -0.958500
v -0.364200 -0.018500 -1.004000
v -0.332500 -0.027700 -1.034200
v -0.288700 0.017900 -0.947900
v -0.268700 -0.030200 -1.060200
v -0.453700 0.071700 -0.743700
v -0.516400 0.129800 -0.521300
v -0.573900 0.174800 -0.294600
vn -0.4261 0.8293 -0.3616
vn -0.4794 0.8170 -0.3204
vn -0.4477 0.8297 -0.3333
vn -0.4128 0.8056 -0.4249
vn -0.4267 0.8033 -0.4154
vn -0.4209 0.7821 -0.4596
vn -0.4137 0.7803 -0.4691
vn -0.4536 0.7499 -0.4816
vn -0.4038 0.7736 -0.4884
vn -0.4337 0.7234 -0.5372
vn -0.4792 0.7968 -0.3681
vn -0.4588 0.7953 -0.3963
vn -0.0196 0.7412 -0.6710
vn 0.0186 0.7412 -0.6710
vn 0.1050 0.7314 -0.6738
vn -0.0893 0.7333 -0.6740
vn -0.1247 0.7106 -0.6924
vn -0.1960 0.6784 -0.7081
vn -0.2222 0.6813 -0.6975
vn -0.2811 0.7052 -0.6509
vn -0.3252 0.7177 -0.6157
vn -0.4119 0.7127 -0.5678
vn -0.0083 -0.9706 0.2406
vn 0.1218 -0.8807 0.4577
vn -0.2253 -0.9599 0.1669
vn -0.4203 -0.9059 0.0510
vn -0.3771 -0.9230 0.0759
vn -0.3379 -0.9328 0.1255
vn -0.4409 -0.8872 0.1360
vn -0.3909 -0.9013 0.1865
vn 0.0982 -0.8150 0.5711
vn 0.1470 -0.7927 0.5917
vn 0.2427 -0.7677 0.5931
vn 0.0110 -0.9550 0.2965
vn -0.4200 -0.9070 0.0302
vn -0.3853 -0.9221 0.0360
vn -0.3622 -0.9277 0.0905
vn 0.0158 -0.9598 0.2803
vn 0.3560 -0.8527 0.3822
vn 0.3105 -0.8542 0.4170
vn 0.3341 -0.8638 0.3772
vn 0.3228 -0.8690 0.3750
vn -0.1211 -0.8807 0.4579
vn 0.0004 -0.8911 0.4539
vn -0.0510 -0.8242 0.5640
vn 0.0004 -0.8610 0.5086
vn 0.0519 -0.8242 0.5639
vn 0.0425 -0.9767 0.2103
vn -0.2417 -0.7677 0.5935
vn -0.1461 -0.7927 0.5919
vn -0.0973 -0.8150 0.5712
vn -0.0106 -0.9550 0.2965
vn -0.3098 -0.8542 0.4175
vn -0.3335 -0.8638 0.3777
vn -0.3222 -0.8690 0.3755
vn 0.3854 -0.9221 0.0354
vn 0.3975 -0.9167 0.0404
vn 0.3624 -0.9277 0.0899
vn -0.0153 -0.9598 0.2803
vn -0.3554 -0.8527 0.3828
vn 0.2256 -0.9599 0.1665
vn 0.4648 -0.8850 0.0284
vn 0.4074 -0.8922 0.1948
vn 0.4411 -0.8872 0.1353
vn 0.3381 -0.9328 0.1248
vn 0.3772 -0.9231 0.0753
vn 0.1748 -0.9770 0.1223
vn 0.0001 -0.9899 0.1420
vn 0.3588 -0.9182 0.1680
vn 0.0074 -0.9999 -0.0104
vn -0.0216 -0.9991 0.0365
vn 0.1741 -0.9840 -0.0390
vn 0.3016 -0.9503 0.0776
vn 0.2966 -0.9305 0.2148
vn -0.1746 -0.9770 0.1226
vn -0.0074 -0.9999 -0.0104
vn 0.0175 -0.9986 0.0506
vn 0.0001 -0.9979 0.0653
vn -0.0133 -0.9978 0.0654
vn -0.1741 -0.9840 -0.0387
vn -0.3015 -0.9503 0.0781
vn -0.2962 -0.9305 0.2153
vn 0.1433 0.9854 -0.0921
vn 0.1130 0.9889 -0.0962
vn 0.1285 0.9871 -0.0959
vn 0.1164 0.9852 -0.1258
vn 0.1277 0.9867 -0.1010
vn 0.1548 0.9824 -0.1046
vn 0.1219 0.9840 -0.1301
vn 0.1402 0.9822 -0.1252
vn 0.0825 0.9915 -0.1009
vn 0.1500 0.9771 -0.1511
vn 0.0974 0.9810 -0.1677
vn 0.0906 0.9750 -0.2030
vn 0.0542 0.9821 -0.1803
vn 0.1143 0.9717 -0.2066
vn 0.0961 0.9804 -0.1722
vn 0.1270 0.9700 -0.2071
vn 0.0684 0.9845 -0.1616
vn 0.1447 0.9764 -0.1602
vn 0.1620 0.9596 -0.2299
vn 0.0294 0.9676 -0.2508
vn -0.0002 0.9795 -0.2014
vn 0.0482 0.9680 -0.2463
vn 0.0499 0.9779 -0.2028
vn 0.0965 0.9626 -0.2530
vn 0.0925 0.9646 -0.2468
vn 0.0683 0.9684 -0.2398
vn 0.0771 0.9596 -0.2707
vn 0.1207 0.9523 -0.2803
vn 0.0338 0.9461 -0.3220
vn 0.0308 0.9597 -0.2795
vn 0.0941 0.9501 -0.2973
vn 0.0858 0.9569 -0.2776
vn 0.1177 0.9409 -0.3176
vn 0.0867 0.9486 -0.3043
vn 0.1483 0.9175 -0.3692
vn 0.1584 0.9106 -0.3818
vn 0.1977 0.8867 -0.4179
vn 0.1244 0.9305 -0.3445
vn 0.1648 0.8987 -0.4065
vn 0.1644 0.8970 -0.4103
vn 0.1287 0.9067 -0.4016
vn 0.1289 0.9110 -0.3917
vn 0.1289 0.9090 -0.3963
vn 0.0964 0.9104 -0.4022
vn 0.1014 0.9152 -0.3900
vn 0.1174 0.9082 -0.4017
vn 0.1286 0.9043 -0.4070
vn 0.1248 0.9062 -0.4039
vn 0.1179 0.9205 -0.3725
vn 0.0989 0.9024 -0.4194
vn 0.0946 0.9139 -0.3947
vn 0.0902 0.9247 -0.3698
vn 0.0899 0.9415 -0.3249
vn 0.0952 0.9335 -0.3457
vn 0.0343 0.9500 -0.3103
vn 0.0322 0.9600 -0.2783
vn 0.0364 0.9390 -0.3420
vn 0.0379 0.9245 -0.3793
vn 0.0388 0.9194 -0.3914
vn 0.0409 0.9088 -0.4153
vn 0.0415 0.8985 -0.4370
vn 0.0406 0.9081 -0.4167
vn 0.0432 0.8771 -0.4784
vn -0.0342 0.9463 -0.3215
vn -0.0384 0.9247 -0.3788
vn -0.0393 0.9197 -0.3906
vn -0.0431 0.8989 -0.4360
vn -0.0457 0.8770 -0.4783
vn -0.0488 0.9681 -0.2457
vn -0.0311 0.9600 -0.2782
vn -0.0395 0.9083 -0.4164
vn -0.0298 0.9700 -0.2412
vn -0.0350 0.9495 -0.3119
vn -0.0371 0.9382 -0.3440
vn -0.1068 0.9627 -0.2485
vn -0.0971 0.9628 -0.2522
vn -0.1220 0.9513 -0.2832
vn -0.1187 0.9703 -0.2109
vn -0.0894 0.9747 -0.2047
vn -0.0505 0.9782 -0.2016
vn -0.0980 0.9814 -0.1649
vn -0.0973 0.9797 -0.1752
vn -0.0929 0.9820 -0.1646
vn -0.0544 0.9821 -0.1801
vn 0.0034 0.9835 -0.1808
vn -0.0723 0.9834 -0.1667
vn -0.1255 0.9834 -0.1313
vn -0.1239 0.9845 -0.1242
vn -0.1404 0.9822 -0.1249
vn -0.1211 0.9773 -0.1737
vn -0.1189 0.9877 -0.1017
vn -0.1458 0.9847 -0.0955
vn -0.1528 0.9837 -0.0948
vn -0.1260 0.9872 -0.0978
vn -0.0827 0.9918 -0.0977
vn -0.0737 0.9808 -0.1806
vn -0.0305 0.9835 -0.1784
vn -0.0001 0.9846 -0.1750
vn 0.0302 0.9835 -0.1784
vn 0.0725 0.9821 -0.1737
vn 0.0915 0.9820 -0.1653
vn -0.0003 0.9122 -0.4097
vn -0.0003 0.9123 -0.4096
vn -0.1669 0.9207 -0.3527
vn -0.1526 0.9126 -0.3792
vn -0.1751 0.9062 -0.3849
vn -0.1989 0.8865 -0.4178
vn -0.1655 0.8986 -0.4063
vn -0.1651 0.8970 -0.4101
vn -0.1293 0.9068 -0.4014
vn -0.1254 0.9066 -0.4030
vn -0.1270 0.9078 -0.3996
vn -0.1312 0.9063 -0.4018
vn -0.1263 0.9112 -0.3921
vn -0.1166 0.9090 -0.4001
vn -0.1163 0.9210 -0.3719
vn -0.0938 0.9171 -0.3874
vn -0.1038 0.9044 -0.4140
vn -0.1039 0.9183 -0.3820
vn -0.1038 0.9043 -0.4140
vn -0.1013 0.9022 -0.4192
vn -0.0889 0.9250 -0.3693
vn -0.1350 0.9265 -0.3512
vn -0.1040 0.9456 -0.3084
vn -0.0964 0.9452 -0.3119
vn -0.0959 0.9333 -0.3460
vn -0.1296 0.9110 -0.3916
vn -0.0870 0.9489 -0.3034
vn -0.0715 0.9657 -0.2495
vn -0.1255 0.9685 -0.2151
vn -0.0871 0.9494 -0.3016
vn -0.0875 0.9552 -0.2828
vn 0.4099 0.8065 -0.4261
vn 0.4258 0.8286 -0.3635
vn 0.4277 0.8024 -0.4162
vn 0.4529 0.7498 -0.4824
vn 0.4154 0.7847 -0.4600
vn 0.4785 0.7974 -0.3677
vn 0.4580 0.7960 -0.3957
vn 0.4111 0.7125 -0.5686
vn 0.4889 0.7126 -0.5032
vn 0.4789 0.8172 -0.3206
vn 0.4475 0.8291 -0.3351
vn 0.3109 0.7000 -0.6429
vn 0.4041 0.7275 -0.5544
vn 0.2870 0.7362 -0.6129
vn 0.2199 0.6827 -0.6968
vn 0.1924 0.6792 -0.7082
vn 0.1235 0.7107 -0.6925
vn 0.0566 0.7363 -0.6743
vn 0.4117 0.7779 -0.4747
vn 0.4031 0.7736 -0.4889
vn 0.4117 0.7779 -0.4746
vn 0.4203 0.7820 -0.4603
vn -0.4671 0.8313 -0.3012
vn -0.4352 0.8584 -0.2715
vn -0.4383 0.8589 -0.2650
vn -0.4718 0.8463 -0.2474
vn -0.4386 0.8702 -0.2247
vn -0.3737 0.9115 -0.1719
vn -0.3740 0.9166 -0.1409
vn -0.4411 0.8912 -0.1056
vn -0.3947 0.9134 -0.0999
vn -0.3327 0.9393 -0.0842
vn -0.1556 0.9836 -0.0909
vn 0.3967 0.9127 -0.0983
vn 0.3370 0.9377 -0.0852
vn 0.1700 0.9791 -0.1116
vn 0.4385 0.8932 -0.0998
vn 0.3727 0.9168 -0.1436
vn 0.3732 0.9111 -0.1750
vn 0.4384 0.8703 -0.2245
vn 0.4722 0.8465 -0.2460
vn 0.4384 0.8584 -0.2663
vn 0.4350 0.8580 -0.2731
vn 0.4666 0.8315 -0.3016
vt 1.007457 0.238719
vt 1.073575 0.486977
vt 1.002621 0.237783
vt 0.953823 0.047099
vt 0.948821 0.045883
vt 0.934038 -0.012718
vt 0.930038 -0.011141
vt 0.907205 -0.066834
vt 0.495489 -0.170191
vt 0.495490 -0.165716
vt 0.338257 -0.159662
vt 0.653258 -0.155089
vt 0.652740 -0.159578
vt 0.795839 -0.127456
vt 0.795201 -0.132264
vt 0.868253 -0.099297
vt 0.870554 -0.103195
vt 0.903567 -0.064198
vt 0.313700 0.566700
vt 0.339300 0.528500
vt 0.364800 0.567400
vt 0.372200 0.529700
vt 0.371000 0.546100
vt 0.368800 0.567600
vt 0.531741 0.901442
vt 0.519211 0.868983
vt 0.687226 0.817033
vt 0.366000 0.589000
vt 0.363600 0.603500
vt 0.326400 0.527200
vt 0.342500 0.523400
vt 0.354200 0.516800
vt 0.368400 0.510600
vt 0.372500 0.516800
vt 0.371400 0.506500
vt 0.369900 0.501000
vt 0.364400 0.509400
vt 0.313700 0.532800
vt 0.313700 0.527500
vt 0.356800 0.613000
vt 0.313700 0.617800
vt 0.352500 0.620200
vt 0.336000 0.621800
vt 0.358400 0.616900
vt 0.362000 0.613000
vt 0.362600 0.608600
vt 0.313700 0.621200
vt 0.370656 0.348594
vt 0.359956 0.349394
vt 0.340356 0.347694
vt 0.360656 0.336494
vt 0.316356 0.343194
vt -0.028639 0.933683
vt 0.035205 0.686784
vt 0.218202 0.868042
vt -0.140240 0.740478
vt -0.183503 0.911473
vt 0.289856 0.336894
vt -0.219592 1.064248
vt -0.143931 1.197690
vt -0.014194 1.140192
vt 0.250656 0.328794
vt 0.495443 0.380480
vt 0.495870 0.612299
vt 0.284588 0.395798
vt 0.259313 0.627952
vt 0.088589 0.440326
vt -0.074929 0.486613
vt -0.079574 0.487835
vt -0.012533 0.238290
vt -0.007811 0.237076
vt 0.495372 0.146533
vt 0.309771 0.162522
vt 0.137755 0.201030
vt 0.041664 0.045951
vt 0.046394 0.044852
vt 0.060433 -0.011191
vt 0.064240 -0.009636
vt 0.087001 -0.064265
vt 0.090288 -0.061964
vt 0.173071 0.009216
vt 0.337332 -0.151176
vt 0.326373 -0.022484
vt 0.194277 -0.122998
vt 0.124766 -0.096020
vt 0.122461 -0.099440
vt 0.194927 -0.127629
vt 0.337632 -0.155170
vt 0.495376 -0.039177
vt 0.495491 -0.161574
vt 0.680963 0.162188
vt 0.664501 -0.022515
vt 0.653561 -0.151107
vt 0.706193 0.395166
vt 1.063971 0.484722
vt 0.901719 0.439087
vt 0.852870 0.200534
vt 1.130944 0.736336
vt 0.955955 0.684149
vt 0.732180 0.626752
vt 1.175524 0.906326
vt 1.179590 0.905873
vt 1.021386 0.930015
vt 0.774664 0.866304
vt 0.496466 0.842871
vt 1.008971 1.136332
vt 1.217364 1.057734
vt 1.213349 1.058256
vt 1.139412 1.192635
vt 1.233108 1.181085
vt 0.001696 0.997020
vt 0.003344 0.994072
vt 0.048630 0.994187
vt 1.229129 1.181127
vt 1.226344 1.247224
vt 1.230551 1.249801
vt 0.847560 1.099279
vt 0.651110 1.076470
vt 0.497301 1.072657
vt 0.343411 1.077526
vt 0.147047 1.101845
vt -0.080998 -0.256671
vt -0.083522 -0.193425
vt -0.167139 -0.260083
vt -0.169564 -0.196833
vt 0.944090 0.044789
vt 0.926230 -0.009684
vt 0.900289 -0.061898
vt 0.865945 -0.095970
vt 0.817599 0.009127
vt 0.796491 -0.122931
vt 0.998024 0.236571
vt 1.068691 0.486038
vt 1.135412 0.737921
vt 0.036523 0.047275
vt 0.056426 -0.012768
vt -0.017303 0.239324
vt 0.083356 -0.066904
vt 0.120033 -0.103266
vt 0.195555 -0.132372
vt 1.140452 0.739061
vt 1.183807 0.904985
vt 1.221619 1.057124
vt 1.237441 1.182056
vt 1.234435 1.252285
vt 0.058456 0.489094
vt 0.046956 0.489094
vt -0.084592 0.488812
s 1
usemtl default.001
f 1/1/1 2/2/2 3/3/3
f 4/4/4 1/1/1 5/5/5
f 4/4/4 5/5/6 6/6/7
f 7/7/8 6/6/7 5/5/5
f 6/6/7 7/7/9 8/8/10
f 3/3/11 5/5/5 1/1/12
f 9/9/13 10/10/14 11/11/15
f 10/10/14 9/9/13 12/12/16
f 13/13/17 12/12/16 9/9/13
f 12/12/16 13/13/17 14/14/18
f 15/15/19 14/14/18 13/13/17
f 14/14/18 15/15/19 16/16/20
f 17/17/21 16/16/20 15/15/19
f 16/16/20 17/17/21 18/18/22
f 8/8/10 18/18/22 17/17/21
f 18/18/22 8/8/10 7/7/8
f 19/19/23 20/20/24 21/21/25
f 22/22/26 23/23/27 21/21/25
f 2/24/28 21/21/25 23/23/27
f 21/25/25 2/26/28 1/27/29
f 1/28/29 4/29/30 21/21/25
f 24/30/31 25/31/32 20/20/24
f 26/32/33 20/20/24 25/31/32
f 27/33/34 20/20/24 26/32/33
f 20/20/24 27/33/34 21/21/25
f 21/21/25 27/33/34 22/22/35
f 22/22/35 27/33/34 28/34/36
f 28/34/36 27/33/34 29/35/37
f 29/35/37 27/33/34 30/36/38
f 31/36/39 30/36/38 27/33/34
f 26/32/33 32/37/40 27/33/34
f 33/36/41 27/33/34 32/37/40
f 31/36/42 27/33/34 33/36/41
f 19/19/23 34/20/43 35/38/44
f 36/30/45 35/38/44 34/20/43
f 37/39/46 35/38/44 36/30/45
f 24/30/47 35/38/44 37/39/46
f 20/20/24 35/38/44 24/30/47
f 19/19/48 35/38/44 20/20/24
f 38/32/49 39/31/50 34/20/43
f 36/30/51 34/20/43 39/31/50
f 34/20/43 40/33/52 38/32/49
f 38/32/49 40/33/52 41/37/53
f 41/37/53 40/33/52 42/36/54
f 43/36/55 42/36/54 40/33/52
f 44/34/56 40/33/52 45/22/57
f 46/35/58 40/33/52 44/34/56
f 47/36/59 40/33/52 46/35/58
f 40/33/52 47/36/59 43/36/60
f 40/33/52 48/21/61 45/22/62
f 49/29/63 50/28/64 48/21/61
f 51/24/65 48/21/61 50/28/64
f 52/23/66 48/21/61 51/24/65
f 45/22/57 48/21/61 52/23/66
f 53/40/67 48/21/61 54/41/68
f 48/21/61 53/40/67 49/29/69
f 53/40/67 54/41/68 55/42/70
f 11/43/71 55/42/70 54/41/68
f 55/42/70 56/44/72 53/40/67
f 57/45/73 53/40/67 56/44/72
f 58/46/74 53/40/67 57/45/73
f 53/40/67 58/46/74 49/29/63
f 59/40/75 15/42/76 54/41/68
f 13/43/77 54/41/68 15/42/76
f 9/47/78 54/41/68 13/43/77
f 54/41/68 9/47/78 11/43/79
f 15/42/76 59/40/75 17/44/80
f 17/44/80 59/40/75 8/45/81
f 8/45/81 59/40/75 6/46/82
f 6/46/82 59/40/75 4/29/30
f 4/29/30 59/40/75 21/21/25
f 54/41/68 21/21/25 59/40/75
f 21/21/25 54/41/68 19/19/23
f 48/21/61 19/19/23 54/41/68
f 19/19/23 48/21/61 34/20/43
f 40/33/52 34/20/43 48/21/61
f 43/48/83 60/49/84 42/48/85
f 60/49/84 61/50/86 62/49/87
f 61/50/88 63/50/89 62/49/87
f 41/51/90 62/49/87 63/50/89
f 42/48/85 62/49/87 41/51/90
f 62/49/87 42/48/85 60/49/91
f 61/50/86 64/52/92 63/50/89
f 65/53/93 66/54/94 67/55/95
f 66/54/94 65/53/93 68/56/96
f 69/57/97 68/56/96 65/53/93
f 68/58/96 69/52/97 70/58/98
f 70/58/98 69/52/97 64/52/99
f 64/52/99 69/52/97 63/50/89
f 65/53/93 63/59/89 69/57/97
f 63/59/89 65/53/93 41/60/90
f 38/61/100 41/60/90 65/53/93
f 70/58/98 71/62/101 68/58/96
f 72/63/102 73/64/103 74/65/104
f 75/66/105 74/65/104 73/64/103
f 74/65/104 75/66/105 76/67/106
f 66/54/94 76/67/106 75/66/105
f 76/67/106 66/54/94 77/68/107
f 68/56/96 77/68/107 66/54/94
f 71/62/108 77/62/107 68/58/96
f 77/68/107 71/69/108 78/70/109
f 77/68/107 79/71/110 76/67/106
f 80/72/111 72/63/102 81/73/112
f 76/67/106 82/74/113 74/65/114
f 82/74/113 76/67/106 79/71/115
f 77/68/107 78/70/116 79/71/115
f 83/75/117 79/71/115 78/70/116
f 84/76/118 83/75/117 85/77/119
f 83/75/117 84/76/118 79/71/115
f 82/74/120 79/71/115 84/76/118
f 86/78/121 84/76/118 85/77/119
f 85/77/119 87/79/122 86/78/121
f 88/80/123 86/78/121 87/79/124
f 89/81/125 86/78/121 88/80/123
f 86/78/121 89/81/125 84/76/118
f 82/74/120 84/76/118 89/81/125
f 90/82/126 91/83/127 92/84/128
f 89/81/125 92/84/128 91/83/127
f 92/84/128 89/81/125 93/85/129
f 88/80/123 93/85/129 89/81/125
f 93/85/129 88/80/123 94/86/130
f 87/79/122 94/86/130 88/80/123
f 93/85/129 94/86/130 92/84/128
f 95/87/131 92/84/128 94/86/131
f 96/88/132 90/82/126 95/87/133
f 92/84/134 95/87/133 90/82/126
f 91/83/127 81/73/135 89/81/136
f 74/65/104 82/74/113 81/73/135
f 89/81/136 81/73/135 82/74/113
f 74/65/104 81/73/137 72/63/138
f 81/73/137 91/83/139 80/72/111
f 80/72/111 91/83/140 97/89/141
f 90/82/142 97/89/141 91/83/140
f 97/89/141 90/82/142 98/90/143
f 96/88/144 98/90/143 90/82/142
f 10/10/145 98/90/143 96/88/145
f 99/91/146 97/89/147 100/92/148
f 98/90/149 100/92/148 97/89/147
f 100/92/148 98/90/149 101/93/149
f 10/10/150 101/93/149 98/90/149
f 99/91/146 102/94/151 80/72/152
f 12/12/153 101/93/149 10/10/153
f 72/63/154 80/72/155 102/94/151
f 80/72/155 97/89/156 99/91/146
f 103/95/157 104/96/158 105/97/159
f 106/98/160 104/96/158 103/95/157
f 107/99/161 104/96/158 106/98/160
f 104/96/158 107/99/161 102/94/151
f 108/100/162 102/94/151 107/99/161
f 102/94/151 108/100/162 72/63/154
f 73/64/103 72/63/154 108/100/162
f 109/101/163 106/98/160 110/102/164
f 106/98/160 109/101/163 107/99/161
f 111/103/165 107/99/161 109/101/163
f 107/99/161 111/103/165 108/100/162
f 112/104/166 108/100/162 111/103/165
f 108/100/162 112/104/166 73/64/103
f 113/105/167 73/64/103 112/104/166
f 73/64/103 113/105/167 75/66/105
f 67/55/95 75/66/105 113/105/167
f 75/66/105 67/55/95 66/54/94
f 111/103/165 26/106/168 112/104/166
f 110/102/164 114/107/169 109/101/163
f 115/108/170 109/101/163 114/107/169
f 109/101/163 115/108/170 111/103/165
f 32/109/171 111/103/165 115/108/170
f 111/103/165 32/109/171 26/106/172
f 114/107/169 116/110/173 115/108/170
f 31/111/174 33/112/175 117/113/176
f 32/109/171 117/114/176 33/115/175
f 115/108/170 117/114/176 32/109/171
f 117/114/176 115/108/170 116/110/177
f 116/110/173 31/116/177 117/114/176
f 26/106/172 25/117/178 112/104/166
f 24/118/179 112/104/166 25/117/178
f 112/104/166 24/118/179 113/105/167
f 37/119/180 113/105/167 24/118/179
f 36/120/181 113/105/167 37/119/180
f 113/105/167 36/120/181 67/55/95
f 39/121/182 67/55/95 36/120/181
f 67/55/95 39/121/182 65/53/93
f 38/61/183 65/53/93 39/121/182
f 118/122/184 119/123/184 120/124/185
f 121/125/184 120/124/185 119/123/184
f 3/3/186 122/126/187 5/5/188
f 7/7/189 5/5/188 122/126/187
f 7/7/189 123/127/190 18/18/191
f 123/127/190 7/7/189 122/126/187
f 18/18/191 124/128/192 16/16/193
f 125/129/194 16/16/193 124/128/192
f 16/16/193 125/129/194 14/14/195
f 124/128/192 126/130/196 125/129/194
f 127/131/197 125/129/194 126/130/196
f 125/129/194 127/131/197 14/14/198
f 127/131/199 126/130/196 101/93/200
f 100/92/201 101/93/200 126/130/196
f 101/93/202 12/12/203 127/131/197
f 14/14/204 127/131/199 12/12/204
f 105/97/205 126/130/196 128/132/206
f 128/132/206 103/95/157 105/97/207
f 126/130/208 105/97/207 100/92/201
f 123/127/190 124/128/192 18/18/209
f 124/128/192 123/127/190 126/130/196
f 122/126/187 126/130/196 123/127/190
f 126/130/196 122/126/187 128/132/206
f 3/3/210 128/132/206 122/126/187
f 129/133/211 128/132/206 3/3/210
f 128/132/206 129/133/211 103/95/157
f 130/134/212 103/95/157 129/133/211
f 103/95/157 130/134/212 106/98/160
f 110/102/164 106/98/160 130/134/212
f 100/92/208 105/97/207 99/91/213
f 104/96/158 99/91/213 105/97/207
f 99/91/213 104/96/158 102/94/214
f 83/75/215 78/70/216 49/135/217
f 85/77/218 83/75/215 58/136/219
f 50/137/220 49/135/217 78/70/221
f 87/79/222 85/77/218 57/138/223
f 78/70/216 71/69/224 50/137/225
f 56/139/226 87/79/222 57/138/227
f 87/79/222 56/139/226 94/86/228
f 94/86/228 56/139/226 95/87/229
f 55/140/230 95/87/229 56/139/226
f 95/87/229 55/140/230 96/88/231
f 11/11/15 96/88/231 55/140/230
f 96/88/231 11/11/232 10/10/14
f 58/136/233 57/138/227 85/77/234
f 49/135/217 58/136/235 83/75/236
f 3/3/11 2/2/2 129/133/237
f 23/141/238 129/133/237 2/2/2
f 129/133/237 23/141/238 130/134/239
f 22/142/240 130/134/239 23/141/238
f 130/134/239 22/142/240 110/102/241
f 28/143/242 110/102/241 22/142/240
f 110/102/241 28/143/242 114/107/243
f 29/144/244 114/107/243 28/143/242
f 114/107/243 29/144/244 116/110/245
f 30/145/246 116/110/245 29/144/244
f 116/110/245 30/145/246 31/116/247
f 46/146/248 43/147/249 47/146/250
f 43/147/249 46/146/248 60/147/251
f 44/146/252 60/147/251 46/146/248
f 60/147/251 44/146/252 61/147/253
f 45/146/254 61/147/253 44/146/252
f 61/147/253 45/146/254 64/147/255
f 52/146/256 64/147/255 45/146/254
f 64/147/255 52/146/256 70/147/257
f 51/146/258 70/147/257 52/146/256
f 70/147/257 51/146/258 71/147/224
f 50/137/220 71/69/224 51/148/258
